<svg xmlns="http://www.w3.org/2000/svg" viewBox="0 0 64 64" width="64" height="64" role="img">
  <defs>
    <linearGradient id="lg-currency-dashboard" x1="32" y1="3" x2="32" y2="61" gradientUnits="userSpaceOnUse">
      <stop stop-color="#34d399"/><stop offset="1" stop-color="#0f766e"/>
    </linearGradient>
  </defs>
  <rect x="3" y="3" width="58" height="58" rx="15" fill="url(#lg-currency-dashboard)"/>
  <rect x="3" y="3" width="58" height="58" rx="15" fill="#fff" opacity=".08"/>
  <circle cx="32" cy="32" r="14" fill="none" stroke="#fff" stroke-width="3.2"/><path fill="#fff" d="M32 21c-3.2 0-5.6 1.9-5.6 4.7 0 5.8 8.9 3.5 8.9 6.6 0 1.3-1.3 2-3.3 2-2.2 0-3.6-.9-3.9-2.4h-3.3c.3 3 2.6 4.9 5.6 5.3V40h3.2v-2.8c3.2-.3 5.4-2.2 5.4-5 0-5.9-8.9-3.7-8.9-6.6 0-1.2 1.1-1.9 2.9-1.9 1.9 0 3.1.8 3.4 2.2h3.3c-.3-2.8-2.3-4.6-5.1-5V19h-3.2v2z"/>
</svg>
